<?xml version="1.0" encoding="UTF-8" standalone="no"?><!DOCTYPE svg PUBLIC "-//W3C//DTD SVG 1.1//EN" "http://www.w3.org/Graphics/SVG/1.1/DTD/svg11.dtd"><svg width="100%" height="100%" viewBox="0 0 256 256" version="1.1" xmlns="http://www.w3.org/2000/svg" xmlns:xlink="http://www.w3.org/1999/xlink" xml:space="preserve" xmlns:serif="http://www.serif.com/" style="fill-rule:evenodd;clip-rule:evenodd;stroke-linejoin:round;stroke-miterlimit:2;"><path d="M47.45,103.026l0,87.567l-39.165,-0l0,-122.846l51.031,0c22.38,0 39.905,4.74 52.574,14.22c15.049,11.339 22.573,26.729 22.573,46.168c0,18.599 -6.431,33.779 -19.293,45.538c-12.862,11.76 -29.422,17.64 -49.68,17.64c-2.38,-0 -6.271,-0.12 -11.673,-0.36l0,-36.089l6.271,0c22.83,0 34.245,-8.91 34.245,-26.729c0,-16.739 -11.222,-25.109 -33.667,-25.109l-13.216,-0Z" style="fill:#fff;fill-rule:nonzero;"/><path d="M195.72,148.114l-0,-32.219c7.91,0 11.865,-2.819 11.865,-8.459c-0,-5.16 -3.023,-7.74 -9.068,-7.74c-6.11,0 -9.164,3.54 -9.164,10.62l-0,80.277l-39.166,-0l0,-76.498c0,-7.919 0.852,-14.414 2.557,-19.484c1.704,-5.07 4.614,-9.794 8.73,-14.174c4.63,-4.86 10.418,-8.7 17.364,-11.52c6.945,-2.82 14.116,-4.23 21.512,-4.23c13.377,0 24.615,4.2 33.715,12.6c9.1,8.4 13.65,18.809 13.65,31.229c-0,12.059 -4.084,21.839 -12.251,29.339c-7.46,6.899 -18.715,10.349 -33.764,10.349l-5.98,-0.09Z" style="fill:#fff;fill-rule:nonzero;"/></svg>